<svg enable-background="new 0 0 88.108 100" height="256" viewBox="0 0 256 256" width="256" xmlns="http://www.w3.org/2000/svg" xmlns:xlink="http://www.w3.org/1999/xlink">
  <path d="m110.8487 128.67732 9.3338 13.78476h17.3814l8.01928-13.78476-8.4488-14.6792h-17.41444zm7.15788 110.85864v-31.16852l-17.41444 9.794-8.87124-5.07872v-10.98108l25.82548-14.6792v-20.4848l-18.73604 12.04072v-21.70256l-17.91004 10.32264v29.42448l-9.79636 6.06992-8.27888-5.47756v-19.72016l-27.18248 15.33528-11.60884-4.8852v-12.4372l28.53004-15.59724-17.84396-8.97036v-11.37992l10.12676-5.54364 25.5942 15.07096 17.77788-10.25656-.42952-.32804-18.17436-10.42412 17.64572-10.9504-17.7118-10.25656-25.59184 15.03792-9.60048-4.78136v-11.34688l17.32004-9.73028-27.64268-15.0096v-12.43484l10.62-5.47284 27.24384 15.73176v-20.05292l8.2128-5.54128 10.06304 5.8056-.06608 30.01448 18.30416 10.4548-.0637-21.20696 19.19624 10.325v-20.4848l-25.8255-14.70988v-10.88432l8.87124-5.1448 17.41444 9.79636v-31.1048l9.96392-6.53248 10.05596 6.53248v31.1048l18.04456-9.9946 9.0742 6.00384v9.79636l-26.71992 15.13704v20.4848l18.27584-11.14864v22.29728l18.83044-10.26128v-32.09128l9.07184-4.22204 9.52968 4.22204v20.51784l28.03444-15.14176 9.80108 5.9708v11.60884l-27.37836 15.56892 17.11944 9.59576v11.08492l-8.8736 4.91588-26.28568-15.53588-18.17672 11.54512 17.57964 10.95512-18.10828 10.42176 18.70536 9.794 26.28568-14.68156 8.44408 5.9708v10.58932l-16.49168 9.26772 26.25736 15.5996v12.24368l-11.1156 5.07872-25.79716-14.68156v19.42752l-9.26772 5.17784-9.06948-5.17784v-29.49056l-19.09712-10.88196v20.4848l-18.27584-11.151v20.4848l25.82784 14.6792v11.6112l-8.91136 4.45096-17.31532-9.794v31.16852l-10.0536 6.46168z"/>
</svg>
