<svg enable-background="new 0 0 154.5 50.5" height="50.5" viewBox="0 0 154.5 50.5" width="154.5" xmlns="http://www.w3.org/2000/svg"><path d="m67.924 38.833v-26.405h13.722c1.948 0 3.529 1.58 3.529 3.528v22.877h-5.758v-20.237c0-.498-.39-.887-.866-.887h-3.982-.022c-.476 0-.866.39-.866.887v20.237z" fill="#0a4595"/><path d="m125.389 22.103v-3.506c0-.498-.39-.887-.887-.887h-4.069c-.498 0-.909.39-.909.887v3.506c0 .498.411.887.909.887h4.069c.497 0 .887-.389.887-.887m-11.731 16.73v-22.877c0-1.948 1.623-3.528 3.614-3.528h10.453c1.992 0 3.615 1.58 3.615 3.528v22.877h-5.952v-9.675c0-.498-.39-.887-.887-.887h-4.069c-.498 0-.909.39-.909.887v9.675z" fill="#0a4595"/><path d="m148.591 22.103v-3.506c0-.498-.411-.887-.909-.887h-4.026c-.498 0-.887.39-.887.887v3.506c0 .498.389.887.887.887h4.026c.498 0 .909-.389.909-.887m-11.645 16.73v-22.877c0-1.948 1.602-3.528 3.571-3.528h10.302c1.992 0 3.593 1.58 3.593 3.528v22.877h-5.823v-9.675c0-.498-.411-.887-.909-.887h-4.026c-.498 0-.887.39-.887.887v9.675z" fill="#0a4595"/><path d="m104.915 12.428h-10.022c-1.926 0-3.485 1.58-3.485 3.506v.022 19.306c0 1.926 1.558 3.506 3.484 3.506h.001 10.022c1.926 0 3.485-1.58 3.485-3.506v-.022-19.306c0-1.926-1.559-3.506-3.485-3.506zm-2.188 20.194c0 .476-.389.866-.865.866h-3.918c-.476-.001-.865-.39-.865-.866v-14.047c0-.476.389-.887.865-.887h3.918c.476 0 .865.411.865.887z" fill="#0a4595"/><path d="m5.409 11.067c.202-.295.409-.59.616-.874 4.553-6.183 11.884-10.193 20.152-10.193 7.735 0 14.647 3.508 19.236 9.023.145.176.29.357.429.533.109 0-.518.15-1.056.419-.548.274-1.283.435-2.157 1.2-.874.771-1.692 1.852-2.607 3.347-.921 1.5-1.945 3.798-2.861 5.562-.916 1.754-1.532 3.441-2.603 4.905-1.071 1.459-2.457 2.97-3.767 3.782-1.314.807-2.54 1.179-4.025 1.024-1.49-.165-3.342-1.066-4.822-1.966-1.475-.905-2.944-2.411-3.963-3.415-1.019-.999-1.185-1.34-2.116-2.535-.936-1.2-2.276-3.187-3.446-4.584-1.169-1.392-2.339-2.649-3.508-3.694-1.174-1.04-2.308-1.857-3.466-2.499z" fill="#083381"/><path d="m48.533 13.788c1.697 3.373 2.649 7.181 2.649 11.217 0 13.809-11.196 25.005-25.005 25.005s-25.01-11.196-25.01-25.005c0-2.214.29-4.356.828-6.4 0 0 1.128.435 2.282 1.319 1.154.88 1.081 1.04 2.188 2.235 1.107 1.19.719 1.081 2.235 2.535s1.676 1.837 3.829 3.28c2.147 1.438 2.411 1.563 4.77 2.484 2.359.916 2.432.854 4.672 1.19 1.402.083 2.815.166 4.222.248-.843.6-1.382.833-2.732 1.443-1.356.611-1.319.533-2.685.993-1.366.461-1.888.595-2.784.849h.098c.052.248.098.367.895.642.797.274.885.486 2.287.45 1.407-.041 1.18.248 3.332-.595 2.147-.849 2.98-1.718 5.267-2.789 2.287-1.066 1.899-.994 3.875-1.49 1.976-.497 2.685-.497 4.025-.497v-.045c.098-.3.062-.502-.347-.797-.409-.3-.31-.336-1.293-.398s-1.65.088-2.633.15-.817.109-1.288.098c-.217-.052-.435-.098-.647-.15.497-.046.828-.181 2.033-.792 1.206-.611 1.221-.564 2.784-1.64 1.568-1.086 1.64-.884 3.482-2.685 1.837-1.8 2.287-2.561 3.875-4.522 1.588-1.966 1.268-1.713 2.483-3.327 1.216-1.619 1.516-1.966 2.313-3.006" fill="#0084cd"/><g fill="#fff"><path d="m6.59 22.159c1.107 1.19.719 1.081 2.235 2.535s1.676 1.837 3.829 3.28c2.147 1.438 2.411 1.563 4.77 2.484 2.359.916 2.432.854 4.672 1.19 1.402.083 2.815.166 4.222.248-.843.6-1.382.833-2.732 1.443-1.356.611-1.319.533-2.685.993-1.366.461-1.888.595-2.784.849h.098c.052.248.098.367.895.642.797.274.885.486 2.287.45 1.407-.041 1.18.248 3.332-.595 2.147-.849 2.98-1.718 5.267-2.789 2.287-1.066 1.899-.994 3.875-1.49 1.976-.497 2.685-.497 4.025-.497v-.045c.098-.3.062-.502-.347-.797-.409-.3-.31-.336-1.293-.398s-1.65.088-2.633.15-.817.109-1.288.098c-.217-.052-.435-.098-.647-.15.497-.046.828-.181 2.033-.792 1.206-.611 1.221-.564 2.784-1.64 1.568-1.086 1.64-.884 3.482-2.685 1.837-1.8 2.287-2.561 3.875-4.522 1.588-1.966 1.268-1.713 2.483-3.327 1.213-1.615 1.515-1.965 2.307-2.998-.755-1.503-1.657-2.918-2.688-4.228-.081.038-.597.179-1.053.408-.548.274-1.283.435-2.157 1.2-.874.771-1.692 1.852-2.607 3.347-.921 1.5-1.945 3.798-2.861 5.562-.916 1.754-1.532 3.441-2.603 4.905-1.071 1.459-2.457 2.97-3.767 3.782-1.314.807-2.54 1.179-4.025 1.024-1.49-.165-3.342-1.066-4.822-1.966-1.475-.905-2.944-2.411-3.963-3.415-1.019-.999-1.185-1.34-2.116-2.535-.936-1.2-2.276-3.187-3.446-4.584-1.169-1.392-2.339-2.649-3.508-3.694-1.174-1.04-2.308-1.857-3.466-2.499l-.035-.034c-1.53 2.275-2.694 4.816-3.413 7.538.011.004 1.132.438 2.28 1.318 1.154.879 1.081 1.039 2.188 2.234z"/><path d="m-131.655-11.659c.028-.371.064-.74.108-1.106-.044.366-.08.735-.108 1.106z"/><path d="m-131.494-13.178c.058-.418.125-.832.203-1.243-.078.411-.146.825-.203 1.243z"/><path d="m-131.254-14.627c.098-.494.21-.982.337-1.465-.127.483-.239.971-.337 1.465z"/><path d="m-131.737-9.732c0-.506.019-1.006.049-1.504-.029.498-.049.999-.049 1.504z"/></g></svg>